<mxfile host="app.diagrams.net" modified="2021-02-15T17:01:18.280Z" agent="5.0 (Windows)" etag="PLbCTqE4oDIikFQw2KAy" version="14.3.2" type="github">
  <diagram id="8zwyP_9BhVqqPvQ4n5HI" name="Page-2">
    <mxGraphModel dx="1422" dy="728" grid="1" gridSize="10" guides="1" tooltips="1" connect="1" arrows="1" fold="1" page="1" pageScale="1" pageWidth="850" pageHeight="1100" math="0" shadow="0">
      <root>
        <mxCell id="iIIpesiE4WymLlkAGQNs-0" />
        <mxCell id="iIIpesiE4WymLlkAGQNs-1" parent="iIIpesiE4WymLlkAGQNs-0" />
        <mxCell id="iIIpesiE4WymLlkAGQNs-2" value="" style="ellipse;html=1;shape=startState;fillColor=#000000;strokeColor=#ff0000;" vertex="1" parent="iIIpesiE4WymLlkAGQNs-1">
          <mxGeometry x="325" y="40" width="30" height="30" as="geometry" />
        </mxCell>
        <mxCell id="iIIpesiE4WymLlkAGQNs-3" value="" style="edgeStyle=orthogonalEdgeStyle;html=1;verticalAlign=bottom;endArrow=open;endSize=8;strokeColor=#ff0000;entryX=0.5;entryY=0;entryDx=0;entryDy=0;" edge="1" source="iIIpesiE4WymLlkAGQNs-2" parent="iIIpesiE4WymLlkAGQNs-1" target="iIIpesiE4WymLlkAGQNs-6">
          <mxGeometry relative="1" as="geometry">
            <mxPoint x="335" y="110" as="targetPoint" />
          </mxGeometry>
        </mxCell>
        <mxCell id="iIIpesiE4WymLlkAGQNs-6" value="" style="rhombus;whiteSpace=wrap;html=1;fillColor=#ffffc0;strokeColor=#ff0000;" vertex="1" parent="iIIpesiE4WymLlkAGQNs-1">
          <mxGeometry x="300" y="120" width="80" height="30" as="geometry" />
        </mxCell>
        <mxCell id="iIIpesiE4WymLlkAGQNs-7" value="prikazati upute?" style="edgeStyle=orthogonalEdgeStyle;html=1;align=left;verticalAlign=bottom;endArrow=open;endSize=8;strokeColor=#ff0000;entryX=0;entryY=0.5;entryDx=0;entryDy=0;" edge="1" source="iIIpesiE4WymLlkAGQNs-6" parent="iIIpesiE4WymLlkAGQNs-1" target="iIIpesiE4WymLlkAGQNs-10">
          <mxGeometry x="-1" relative="1" as="geometry">
            <mxPoint x="480" y="140" as="targetPoint" />
          </mxGeometry>
        </mxCell>
        <mxCell id="iIIpesiE4WymLlkAGQNs-8" value="&lt;div&gt;početak igre&lt;/div&gt;&lt;div&gt;&lt;br&gt;&lt;/div&gt;" style="edgeStyle=orthogonalEdgeStyle;html=1;align=left;verticalAlign=top;endArrow=open;endSize=8;strokeColor=#ff0000;" edge="1" source="iIIpesiE4WymLlkAGQNs-6" parent="iIIpesiE4WymLlkAGQNs-1" target="iIIpesiE4WymLlkAGQNs-9">
          <mxGeometry x="-0.6667" y="10" relative="1" as="geometry">
            <mxPoint x="340" y="220" as="targetPoint" />
            <mxPoint as="offset" />
          </mxGeometry>
        </mxCell>
        <mxCell id="iIIpesiE4WymLlkAGQNs-16" style="edgeStyle=orthogonalEdgeStyle;rounded=0;orthogonalLoop=1;jettySize=auto;html=1;exitX=0.5;exitY=1;exitDx=0;exitDy=0;entryX=0.5;entryY=0;entryDx=0;entryDy=0;" edge="1" parent="iIIpesiE4WymLlkAGQNs-1" source="iIIpesiE4WymLlkAGQNs-9" target="iIIpesiE4WymLlkAGQNs-13">
          <mxGeometry relative="1" as="geometry" />
        </mxCell>
        <mxCell id="iIIpesiE4WymLlkAGQNs-9" value="generiranje 10 slučajnih bombi" style="rounded=1;whiteSpace=wrap;html=1;arcSize=40;fontColor=#000000;fillColor=#ffffc0;strokeColor=#ff0000;" vertex="1" parent="iIIpesiE4WymLlkAGQNs-1">
          <mxGeometry x="280" y="200" width="120" height="40" as="geometry" />
        </mxCell>
        <mxCell id="iIIpesiE4WymLlkAGQNs-10" value="prikaz uputa" style="rounded=1;whiteSpace=wrap;html=1;arcSize=40;fontColor=#000000;fillColor=#ffffc0;strokeColor=#ff0000;" vertex="1" parent="iIIpesiE4WymLlkAGQNs-1">
          <mxGeometry x="490" y="125" width="80" height="20" as="geometry" />
        </mxCell>
        <mxCell id="iIIpesiE4WymLlkAGQNs-11" value="" style="edgeStyle=orthogonalEdgeStyle;html=1;verticalAlign=bottom;endArrow=open;endSize=8;strokeColor=#ff0000;entryX=1;entryY=0.5;entryDx=0;entryDy=0;" edge="1" source="iIIpesiE4WymLlkAGQNs-10" parent="iIIpesiE4WymLlkAGQNs-1" target="iIIpesiE4WymLlkAGQNs-9">
          <mxGeometry relative="1" as="geometry">
            <mxPoint x="550" y="190" as="targetPoint" />
            <Array as="points">
              <mxPoint x="530" y="220" />
            </Array>
          </mxGeometry>
        </mxCell>
        <mxCell id="iIIpesiE4WymLlkAGQNs-13" value="ažuriranje brojeva oko bombe u mreži" style="rounded=1;whiteSpace=wrap;html=1;arcSize=40;fontColor=#000000;fillColor=#ffffc0;strokeColor=#ff0000;" vertex="1" parent="iIIpesiE4WymLlkAGQNs-1">
          <mxGeometry x="280" y="280" width="120" height="40" as="geometry" />
        </mxCell>
        <mxCell id="iIIpesiE4WymLlkAGQNs-14" value="" style="edgeStyle=orthogonalEdgeStyle;html=1;verticalAlign=bottom;endArrow=open;endSize=8;strokeColor=#ff0000;entryX=0.5;entryY=0;entryDx=0;entryDy=0;" edge="1" source="iIIpesiE4WymLlkAGQNs-13" parent="iIIpesiE4WymLlkAGQNs-1" target="iIIpesiE4WymLlkAGQNs-17">
          <mxGeometry relative="1" as="geometry">
            <mxPoint x="340" y="350" as="targetPoint" />
          </mxGeometry>
        </mxCell>
        <mxCell id="iIIpesiE4WymLlkAGQNs-17" value="prikaz mreže, traženje poteza" style="rounded=1;whiteSpace=wrap;html=1;arcSize=40;fontColor=#000000;fillColor=#ffffc0;strokeColor=#ff0000;" vertex="1" parent="iIIpesiE4WymLlkAGQNs-1">
          <mxGeometry x="280" y="370" width="120" height="40" as="geometry" />
        </mxCell>
        <mxCell id="iIIpesiE4WymLlkAGQNs-18" value="" style="edgeStyle=orthogonalEdgeStyle;html=1;verticalAlign=bottom;endArrow=open;endSize=8;strokeColor=#ff0000;entryX=0.5;entryY=0.125;entryDx=0;entryDy=0;entryPerimeter=0;" edge="1" source="iIIpesiE4WymLlkAGQNs-17" parent="iIIpesiE4WymLlkAGQNs-1" target="iIIpesiE4WymLlkAGQNs-38">
          <mxGeometry relative="1" as="geometry">
            <mxPoint x="340" y="460" as="targetPoint" />
          </mxGeometry>
        </mxCell>
        <mxCell id="iIIpesiE4WymLlkAGQNs-22" value="postaviti zastavu" style="rounded=1;whiteSpace=wrap;html=1;arcSize=40;fontColor=#000000;fillColor=#ffffc0;strokeColor=#ff0000;" vertex="1" parent="iIIpesiE4WymLlkAGQNs-1">
          <mxGeometry x="490" y="470" width="120" height="30" as="geometry" />
        </mxCell>
        <mxCell id="iIIpesiE4WymLlkAGQNs-23" value="" style="edgeStyle=orthogonalEdgeStyle;html=1;verticalAlign=bottom;endArrow=open;endSize=8;strokeColor=#ff0000;" edge="1" source="iIIpesiE4WymLlkAGQNs-22" parent="iIIpesiE4WymLlkAGQNs-1">
          <mxGeometry relative="1" as="geometry">
            <mxPoint x="340" y="420" as="targetPoint" />
            <Array as="points">
              <mxPoint x="650" y="480" />
              <mxPoint x="650" y="420" />
            </Array>
          </mxGeometry>
        </mxCell>
        <mxCell id="iIIpesiE4WymLlkAGQNs-24" value="" style="rhombus;whiteSpace=wrap;html=1;fillColor=#ffffc0;strokeColor=#ff0000;" vertex="1" parent="iIIpesiE4WymLlkAGQNs-1">
          <mxGeometry x="190" y="570" width="80" height="40" as="geometry" />
        </mxCell>
        <mxCell id="iIIpesiE4WymLlkAGQNs-25" value="sve otvoreno" style="edgeStyle=orthogonalEdgeStyle;html=1;align=left;verticalAlign=bottom;endArrow=open;endSize=8;strokeColor=#ff0000;entryX=0;entryY=0.5;entryDx=0;entryDy=0;" edge="1" source="iIIpesiE4WymLlkAGQNs-24" parent="iIIpesiE4WymLlkAGQNs-1" target="iIIpesiE4WymLlkAGQNs-29">
          <mxGeometry x="-1" relative="1" as="geometry">
            <mxPoint x="360" y="570" as="targetPoint" />
          </mxGeometry>
        </mxCell>
        <mxCell id="iIIpesiE4WymLlkAGQNs-26" value="bomba?" style="edgeStyle=orthogonalEdgeStyle;html=1;align=left;verticalAlign=top;endArrow=open;endSize=8;strokeColor=#ff0000;entryX=0.5;entryY=0;entryDx=0;entryDy=0;entryPerimeter=0;" edge="1" source="iIIpesiE4WymLlkAGQNs-24" parent="iIIpesiE4WymLlkAGQNs-1" target="iIIpesiE4WymLlkAGQNs-32">
          <mxGeometry x="-1" relative="1" as="geometry">
            <mxPoint x="230" y="640" as="targetPoint" />
          </mxGeometry>
        </mxCell>
        <mxCell id="iIIpesiE4WymLlkAGQNs-29" value="POBJEDA" style="rounded=1;whiteSpace=wrap;html=1;arcSize=40;fontColor=#000000;fillColor=#ffffc0;strokeColor=#ff0000;" vertex="1" parent="iIIpesiE4WymLlkAGQNs-1">
          <mxGeometry x="380" y="580" width="65" height="20" as="geometry" />
        </mxCell>
        <mxCell id="iIIpesiE4WymLlkAGQNs-30" value="" style="edgeStyle=orthogonalEdgeStyle;html=1;verticalAlign=bottom;endArrow=open;endSize=8;strokeColor=#ff0000;entryX=0;entryY=0.5;entryDx=0;entryDy=0;" edge="1" source="iIIpesiE4WymLlkAGQNs-29" parent="iIIpesiE4WymLlkAGQNs-1" target="iIIpesiE4WymLlkAGQNs-31">
          <mxGeometry relative="1" as="geometry">
            <mxPoint x="480" y="570" as="targetPoint" />
          </mxGeometry>
        </mxCell>
        <mxCell id="iIIpesiE4WymLlkAGQNs-31" value="" style="ellipse;html=1;shape=endState;fillColor=#000000;strokeColor=#ff0000;" vertex="1" parent="iIIpesiE4WymLlkAGQNs-1">
          <mxGeometry x="480" y="575" width="30" height="30" as="geometry" />
        </mxCell>
        <mxCell id="iIIpesiE4WymLlkAGQNs-32" value="Kraj, ponovo?" style="rhombus;whiteSpace=wrap;html=1;fillColor=#ffffc0;strokeColor=#ff0000;" vertex="1" parent="iIIpesiE4WymLlkAGQNs-1">
          <mxGeometry x="190" y="640" width="80" height="50" as="geometry" />
        </mxCell>
        <mxCell id="iIIpesiE4WymLlkAGQNs-33" value="ne" style="edgeStyle=orthogonalEdgeStyle;html=1;align=left;verticalAlign=bottom;endArrow=open;endSize=8;strokeColor=#ff0000;entryX=0;entryY=0.5;entryDx=0;entryDy=0;" edge="1" source="iIIpesiE4WymLlkAGQNs-32" parent="iIIpesiE4WymLlkAGQNs-1" target="iIIpesiE4WymLlkAGQNs-35">
          <mxGeometry x="-1" relative="1" as="geometry">
            <mxPoint x="330" y="665" as="targetPoint" />
          </mxGeometry>
        </mxCell>
        <mxCell id="iIIpesiE4WymLlkAGQNs-34" value="da" style="edgeStyle=orthogonalEdgeStyle;html=1;align=left;verticalAlign=top;endArrow=open;endSize=8;strokeColor=#ff0000;" edge="1" source="iIIpesiE4WymLlkAGQNs-32" parent="iIIpesiE4WymLlkAGQNs-1">
          <mxGeometry x="-1" relative="1" as="geometry">
            <mxPoint x="340" y="430" as="targetPoint" />
            <Array as="points">
              <mxPoint x="230" y="780" />
              <mxPoint x="50" y="780" />
            </Array>
          </mxGeometry>
        </mxCell>
        <mxCell id="iIIpesiE4WymLlkAGQNs-35" value="" style="ellipse;html=1;shape=endState;fillColor=#000000;strokeColor=#ff0000;" vertex="1" parent="iIIpesiE4WymLlkAGQNs-1">
          <mxGeometry x="340" y="650" width="30" height="30" as="geometry" />
        </mxCell>
        <mxCell id="iIIpesiE4WymLlkAGQNs-36" value="kvadratic=0" style="rounded=1;whiteSpace=wrap;html=1;arcSize=40;fontColor=#000000;fillColor=#ffffc0;strokeColor=#ff0000;" vertex="1" parent="iIIpesiE4WymLlkAGQNs-1">
          <mxGeometry x="70" y="610" width="90" height="25" as="geometry" />
        </mxCell>
        <mxCell id="iIIpesiE4WymLlkAGQNs-37" value="" style="edgeStyle=orthogonalEdgeStyle;html=1;verticalAlign=bottom;endArrow=open;endSize=8;strokeColor=#ff0000;entryX=0.5;entryY=0;entryDx=0;entryDy=0;" edge="1" source="iIIpesiE4WymLlkAGQNs-36" parent="iIIpesiE4WymLlkAGQNs-1" target="iIIpesiE4WymLlkAGQNs-44">
          <mxGeometry relative="1" as="geometry">
            <mxPoint x="115" y="673" as="targetPoint" />
          </mxGeometry>
        </mxCell>
        <mxCell id="iIIpesiE4WymLlkAGQNs-38" value="" style="rhombus;whiteSpace=wrap;html=1;fillColor=#ffffc0;strokeColor=#ff0000;" vertex="1" parent="iIIpesiE4WymLlkAGQNs-1">
          <mxGeometry x="300" y="465" width="80" height="40" as="geometry" />
        </mxCell>
        <mxCell id="iIIpesiE4WymLlkAGQNs-39" value="no" style="edgeStyle=orthogonalEdgeStyle;html=1;align=left;verticalAlign=bottom;endArrow=open;endSize=8;strokeColor=#ff0000;entryX=0;entryY=0.5;entryDx=0;entryDy=0;" edge="1" source="iIIpesiE4WymLlkAGQNs-38" parent="iIIpesiE4WymLlkAGQNs-1" target="iIIpesiE4WymLlkAGQNs-22">
          <mxGeometry x="-1" relative="1" as="geometry">
            <mxPoint x="480" y="485" as="targetPoint" />
          </mxGeometry>
        </mxCell>
        <mxCell id="iIIpesiE4WymLlkAGQNs-40" value="otvaranje kvadratića" style="edgeStyle=orthogonalEdgeStyle;html=1;align=left;verticalAlign=top;endArrow=open;endSize=8;strokeColor=#ff0000;entryX=1;entryY=0.5;entryDx=0;entryDy=0;" edge="1" source="iIIpesiE4WymLlkAGQNs-38" parent="iIIpesiE4WymLlkAGQNs-1" target="iIIpesiE4WymLlkAGQNs-41">
          <mxGeometry x="-0.6667" relative="1" as="geometry">
            <mxPoint x="310" y="520" as="targetPoint" />
            <Array as="points">
              <mxPoint x="340" y="530" />
            </Array>
            <mxPoint as="offset" />
          </mxGeometry>
        </mxCell>
        <mxCell id="iIIpesiE4WymLlkAGQNs-41" value="otvaranje polja" style="rounded=1;whiteSpace=wrap;html=1;arcSize=40;fontColor=#000000;fillColor=#ffffc0;strokeColor=#ff0000;" vertex="1" parent="iIIpesiE4WymLlkAGQNs-1">
          <mxGeometry x="180" y="520" width="100" height="20" as="geometry" />
        </mxCell>
        <mxCell id="iIIpesiE4WymLlkAGQNs-42" value="" style="edgeStyle=orthogonalEdgeStyle;html=1;verticalAlign=bottom;endArrow=open;endSize=8;strokeColor=#ff0000;" edge="1" parent="iIIpesiE4WymLlkAGQNs-1">
          <mxGeometry relative="1" as="geometry">
            <mxPoint x="229.5" y="570" as="targetPoint" />
            <mxPoint x="229.5" y="540" as="sourcePoint" />
          </mxGeometry>
        </mxCell>
        <mxCell id="iIIpesiE4WymLlkAGQNs-44" value="otvoriti polja oko kvadratica" style="rounded=1;whiteSpace=wrap;html=1;arcSize=40;fontColor=#000000;fillColor=#ffffc0;strokeColor=#ff0000;" vertex="1" parent="iIIpesiE4WymLlkAGQNs-1">
          <mxGeometry x="60" y="680" width="110" height="30" as="geometry" />
        </mxCell>
        <mxCell id="iIIpesiE4WymLlkAGQNs-45" value="" style="edgeStyle=orthogonalEdgeStyle;html=1;verticalAlign=bottom;endArrow=open;endSize=8;strokeColor=#ff0000;" edge="1" source="iIIpesiE4WymLlkAGQNs-44" parent="iIIpesiE4WymLlkAGQNs-1">
          <mxGeometry relative="1" as="geometry">
            <mxPoint x="340" y="440" as="targetPoint" />
            <Array as="points">
              <mxPoint x="115" y="770" />
              <mxPoint x="20" y="770" />
              <mxPoint x="20" y="440" />
            </Array>
          </mxGeometry>
        </mxCell>
        <mxCell id="iIIpesiE4WymLlkAGQNs-48" value="" style="edgeStyle=orthogonalEdgeStyle;html=1;verticalAlign=bottom;endArrow=open;endSize=8;strokeColor=#ff0000;entryX=0.5;entryY=0;entryDx=0;entryDy=0;exitX=0;exitY=0.5;exitDx=0;exitDy=0;" edge="1" source="iIIpesiE4WymLlkAGQNs-24" parent="iIIpesiE4WymLlkAGQNs-1" target="iIIpesiE4WymLlkAGQNs-36">
          <mxGeometry relative="1" as="geometry">
            <mxPoint x="114.5" y="600" as="targetPoint" />
            <mxPoint x="115" y="590" as="sourcePoint" />
          </mxGeometry>
        </mxCell>
      </root>
    </mxGraphModel>
  </diagram>
</mxfile>
